<svg width="1600" height="604" viewBox="0 0 1600 604" fill="none" xmlns="http://www.w3.org/2000/svg">
  <rect width="1600" height="604" rx="40" fill="#F8FAFC"/>
  <path d="M124 474C72 424 62 348 118 298C176 246 262 274 302 222C346 164 308 78 376 48C444 18 516 84 574 94C648 106 720 54 788 82C854 108 860 192 924 228C992 266 1096 250 1152 310C1206 368 1198 468 1262 510C1320 548 1406 514 1460 548" stroke="#D8E1EA" stroke-width="10" stroke-linecap="round"/>
  <path d="M1258 120C1320 62 1404 54 1468 96C1520 130 1548 196 1510 244C1480 282 1420 292 1376 322C1320 360 1290 442 1218 454C1140 468 1072 400 1064 324C1058 264 1082 208 1132 178C1170 154 1218 160 1258 120Z" fill="#FFF1E2"/>
  <path d="M192 136C246 88 326 94 374 150C410 192 420 252 388 286C356 320 296 316 244 340C178 372 126 440 56 420C-18 398 -28 286 32 222C74 178 138 182 192 136Z" fill="#FFF4E8"/>
  <g opacity="0.95">
    <circle cx="270" cy="132" r="16" fill="#F2B35D"/>
    <circle cx="1322" cy="462" r="14" fill="#E58B52"/>
    <circle cx="1420" cy="148" r="10" fill="#F2B35D"/>
  </g>
  <path d="M1098 116C1148 88 1218 100 1260 142" stroke="#243B53" stroke-width="6" stroke-linecap="round"/>
  <path d="M316 454C276 506 208 524 150 502" stroke="#243B53" stroke-width="6" stroke-linecap="round"/>

  <g filter="url(#shadow)">
    <rect x="386" y="96" width="828" height="408" rx="28" fill="white"/>
    <rect x="386" y="96" width="828" height="408" rx="28" stroke="#243B53" stroke-width="8"/>
  </g>

  <rect x="430" y="132" width="740" height="52" rx="18" fill="#243B53"/>
  <rect x="460" y="148" width="148" height="18" rx="9" fill="#F8FAFC" opacity="0.92"/>
  <rect x="1020" y="146" width="110" height="20" rx="10" fill="#F2B35D"/>
  <rect x="900" y="146" width="92" height="20" rx="10" fill="#D8E1EA"/>

  <rect x="432" y="212" width="226" height="248" rx="24" fill="#FFF8EF"/>
  <rect x="686" y="212" width="226" height="248" rx="24" fill="#F8FAFC"/>
  <rect x="940" y="212" width="230" height="248" rx="24" fill="#FFF8EF"/>

  <rect x="462" y="236" width="104" height="18" rx="9" fill="#243B53"/>
  <rect x="716" y="236" width="118" height="18" rx="9" fill="#243B53"/>
  <rect x="970" y="236" width="126" height="18" rx="9" fill="#243B53"/>

  <rect x="462" y="278" width="166" height="58" rx="18" fill="#F2B35D"/>
  <rect x="482" y="296" width="86" height="12" rx="6" fill="white"/>
  <rect x="482" y="316" width="118" height="12" rx="6" fill="#FFE6C8"/>

  <rect x="462" y="352" width="166" height="88" rx="20" fill="white" stroke="#D8E1EA" stroke-width="4"/>
  <rect x="484" y="376" width="104" height="10" rx="5" fill="#243B53"/>
  <rect x="484" y="398" width="78" height="10" rx="5" fill="#B7C4D2"/>
  <rect x="484" y="418" width="118" height="10" rx="5" fill="#B7C4D2"/>

  <rect x="716" y="278" width="166" height="140" rx="22" fill="white" stroke="#D8E1EA" stroke-width="4"/>
  <rect x="738" y="302" width="18" height="18" rx="5" fill="#F2B35D"/>
  <rect x="770" y="306" width="82" height="10" rx="5" fill="#243B53"/>
  <rect x="738" y="338" width="18" height="18" rx="5" fill="#F2B35D"/>
  <rect x="770" y="342" width="66" height="10" rx="5" fill="#243B53"/>
  <rect x="738" y="374" width="18" height="18" rx="5" fill="#F2B35D"/>
  <rect x="770" y="378" width="92" height="10" rx="5" fill="#243B53"/>

  <rect x="964" y="278" width="182" height="58" rx="18" fill="#243B53"/>
  <rect x="990" y="296" width="72" height="12" rx="6" fill="white"/>
  <rect x="990" y="316" width="104" height="12" rx="6" fill="#D8E1EA"/>

  <g>
    <rect x="964" y="354" width="182" height="88" rx="20" fill="white" stroke="#D8E1EA" stroke-width="4"/>
    <rect x="990" y="380" width="128" height="10" rx="5" fill="#243B53"/>
    <rect x="990" y="404" width="92" height="10" rx="5" fill="#B7C4D2"/>
    <rect x="1086" y="398" width="34" height="26" rx="13" fill="#F2B35D"/>
  </g>

  <path d="M472 182L448 212" stroke="#F2B35D" stroke-width="8" stroke-linecap="round"/>
  <path d="M1128 182L1154 212" stroke="#F2B35D" stroke-width="8" stroke-linecap="round"/>

  <g>
    <ellipse cx="296" cy="494" rx="86" ry="20" fill="#E2E8F0"/>
    <path d="M254 426C254 386 286 354 326 354C366 354 392 388 390 432L384 506H268L254 426Z" fill="#243B53"/>
    <path d="M288 354C288 332 306 314 328 314C350 314 368 332 368 354C368 376 350 394 328 394C306 394 288 376 288 354Z" fill="#FFD7B5"/>
    <path d="M282 338C292 314 314 300 338 300C362 300 384 316 390 340C370 338 348 330 332 320C318 334 300 342 282 338Z" fill="#243B53"/>
    <path d="M256 430C268 406 286 392 308 380L324 426L308 506H248L256 430Z" fill="#E58B52"/>
    <path d="M344 390C364 398 382 414 394 438L402 506H344L336 434L344 390Z" fill="#F2B35D"/>
    <rect x="312" y="404" width="96" height="126" rx="18" transform="rotate(-10 312 404)" fill="white" stroke="#243B53" stroke-width="6"/>
    <rect x="332" y="428" width="42" height="10" rx="5" transform="rotate(-10 332 428)" fill="#243B53"/>
    <rect x="332" y="452" width="56" height="10" rx="5" transform="rotate(-10 332 452)" fill="#B7C4D2"/>
    <rect x="332" y="476" width="48" height="10" rx="5" transform="rotate(-10 332 476)" fill="#B7C4D2"/>
    <path d="M286 506L280 566H314L320 506H286Z" fill="#243B53"/>
    <path d="M346 506L354 566H388L378 506H346Z" fill="#243B53"/>
    <path d="M272 566H322" stroke="#243B53" stroke-width="8" stroke-linecap="round"/>
    <path d="M348 566H398" stroke="#243B53" stroke-width="8" stroke-linecap="round"/>
  </g>

  <g>
    <ellipse cx="1302" cy="494" rx="96" ry="20" fill="#E2E8F0"/>
    <path d="M1238 438C1238 390 1276 352 1324 352C1372 352 1406 390 1402 444L1392 506H1250L1238 438Z" fill="#243B53"/>
    <path d="M1278 354C1278 332 1296 314 1318 314C1340 314 1358 332 1358 354C1358 376 1340 394 1318 394C1296 394 1278 376 1278 354Z" fill="#FFD7B5"/>
    <path d="M1272 342C1282 316 1302 300 1326 300C1352 300 1374 316 1380 344C1358 344 1338 338 1322 328C1308 338 1290 344 1272 342Z" fill="#243B53"/>
    <path d="M1244 442C1254 418 1274 402 1298 392L1310 442L1288 506H1226L1244 442Z" fill="#F2B35D"/>
    <path d="M1344 396C1368 404 1388 422 1400 448L1408 506H1348L1338 442L1344 396Z" fill="#E58B52"/>
    <rect x="1260" y="404" width="116" height="86" rx="18" fill="#FFF8EF" stroke="#243B53" stroke-width="6"/>
    <rect x="1282" y="426" width="72" height="10" rx="5" fill="#243B53"/>
    <rect x="1282" y="448" width="46" height="10" rx="5" fill="#F2B35D"/>
    <rect x="1282" y="468" width="62" height="10" rx="5" fill="#B7C4D2"/>
    <circle cx="1362" cy="448" r="16" fill="#F2B35D"/>
    <path d="M1290 506L1286 566H1320L1328 506H1290Z" fill="#243B53"/>
    <path d="M1344 506L1356 566H1392L1376 506H1344Z" fill="#243B53"/>
    <path d="M1278 566H1330" stroke="#243B53" stroke-width="8" stroke-linecap="round"/>
    <path d="M1352 566H1404" stroke="#243B53" stroke-width="8" stroke-linecap="round"/>
  </g>

  <g>
    <circle cx="800" cy="484" r="62" fill="#FFF1E2"/>
    <path d="M774 486L794 506L832 462" stroke="#F2B35D" stroke-width="12" stroke-linecap="round" stroke-linejoin="round"/>
    <path d="M734 484H702" stroke="#243B53" stroke-width="8" stroke-linecap="round"/>
    <path d="M898 484H866" stroke="#243B53" stroke-width="8" stroke-linecap="round"/>
  </g>

  <defs>
    <filter id="shadow" x="350" y="72" width="900" height="480" filterUnits="userSpaceOnUse" color-interpolation-filters="sRGB">
      <feFlood flood-opacity="0" result="BackgroundImageFix"/>
      <feColorMatrix in="SourceAlpha" type="matrix" values="0 0 0 0 0 0 0 0 0 0 0 0 0 0 0 0 0 0 127 0" result="hardAlpha"/>
      <feOffset dy="16"/>
      <feGaussianBlur stdDeviation="12"/>
      <feColorMatrix type="matrix" values="0 0 0 0 0.141176 0 0 0 0 0.231373 0 0 0 0 0.32549 0 0 0 0.12 0"/>
      <feBlend mode="normal" in2="BackgroundImageFix" result="effect1_dropShadow_1_2"/>
      <feBlend mode="normal" in="SourceGraphic" in2="effect1_dropShadow_1_2" result="shape"/>
    </filter>
  </defs>
</svg>
